<svg width="94" height="20" viewBox="0 0 94 20" fill="none" xmlns="http://www.w3.org/2000/svg">
<path d="M22.7968 16.16C21.9115 16.16 21.1115 15.92 20.3968 15.44C19.6821 14.96 19.1115 14.2827 18.6848 13.408C18.2688 12.5333 18.0608 11.5147 18.0608 10.352C18.0608 9.18933 18.2688 8.176 18.6848 7.312C19.1008 6.448 19.6608 5.776 20.3648 5.296C21.0795 4.816 21.8741 4.576 22.7488 4.576C23.6448 4.576 24.4448 4.816 25.1488 5.296C25.8635 5.776 26.4288 6.45333 26.8448 7.328C27.2608 8.192 27.4688 9.21067 27.4688 10.384C27.4688 11.5467 27.2608 12.5653 26.8448 13.44C26.4288 14.304 25.8688 14.976 25.1648 15.456C24.4608 15.9253 23.6715 16.16 22.7968 16.16ZM22.7648 14.192C23.2768 14.192 23.7195 14.048 24.0928 13.76C24.4661 13.472 24.7541 13.0453 24.9568 12.48C25.1701 11.9147 25.2768 11.2107 25.2768 10.368C25.2768 9.52533 25.1701 8.82133 24.9568 8.256C24.7541 7.69067 24.4608 7.26933 24.0768 6.992C23.7035 6.704 23.2608 6.56 22.7488 6.56C22.2475 6.56 21.8101 6.704 21.4368 6.992C21.0635 7.26933 20.7701 7.69067 20.5568 8.256C20.3541 8.81067 20.2528 9.50933 20.2528 10.352C20.2528 11.2053 20.3541 11.9147 20.5568 12.48C20.7701 13.0453 21.0635 13.472 21.4368 13.76C21.8101 14.048 22.2528 14.192 22.7648 14.192ZM30.0716 16.16C29.6876 16.16 29.3729 16.032 29.1276 15.776C28.8822 15.52 28.7596 15.2053 28.7596 14.832C28.7596 14.4587 28.8822 14.144 29.1276 13.888C29.3729 13.632 29.6876 13.504 30.0716 13.504C30.4449 13.504 30.7542 13.632 30.9996 13.888C31.2449 14.144 31.3676 14.4587 31.3676 14.832C31.3676 15.2053 31.2449 15.52 30.9996 15.776C30.7542 16.032 30.4449 16.16 30.0716 16.16ZM37.3906 16.16C36.5052 16.16 35.7052 15.92 34.9906 15.44C34.2759 14.96 33.7052 14.2827 33.2786 13.408C32.8626 12.5333 32.6546 11.5147 32.6546 10.352C32.6546 9.18933 32.8626 8.176 33.2786 7.312C33.6946 6.448 34.2546 5.776 34.9586 5.296C35.6732 4.816 36.4679 4.576 37.3426 4.576C38.2386 4.576 39.0386 4.816 39.7426 5.296C40.4572 5.776 41.0226 6.45333 41.4386 7.328C41.8546 8.192 42.0626 9.21067 42.0626 10.384C42.0626 11.5467 41.8546 12.5653 41.4386 13.44C41.0226 14.304 40.4626 14.976 39.7586 15.456C39.0546 15.9253 38.2652 16.16 37.3906 16.16ZM37.3586 14.192C37.8706 14.192 38.3132 14.048 38.6866 13.76C39.0599 13.472 39.3479 13.0453 39.5506 12.48C39.7639 11.9147 39.8706 11.2107 39.8706 10.368C39.8706 9.52533 39.7639 8.82133 39.5506 8.256C39.3479 7.69067 39.0546 7.26933 38.6706 6.992C38.2972 6.704 37.8546 6.56 37.3426 6.56C36.8412 6.56 36.4039 6.704 36.0306 6.992C35.6572 7.26933 35.3639 7.69067 35.1506 8.256C34.9479 8.81067 34.8466 9.50933 34.8466 10.352C34.8466 11.2053 34.9479 11.9147 35.1506 12.48C35.3639 13.0453 35.6572 13.472 36.0306 13.76C36.4039 14.048 36.8466 14.192 37.3586 14.192ZM43.0411 12.032L46.8811 4.752H49.2811L45.3451 12.032H43.0411ZM43.0411 13.312V12.032L43.8411 11.408H51.9051V13.312H43.0411ZM48.3531 16V8.832H50.4971V16H48.3531ZM54.3264 16V4.752H56.4704V16H54.3264ZM52.1184 6.64V4.752H56.3104V6.64H52.1184ZM61.9024 16V4.752H64.0784V16H61.9024ZM63.5024 16V14.08H69.7264V16H63.5024ZM63.5024 11.184V9.328H69.1664V11.184H63.5024ZM63.5024 6.672V4.752H69.6464V6.672H63.5024ZM73.9521 16V4.992H76.1441V16H73.9521ZM70.3681 6.688V4.752H79.7281V6.688H70.3681ZM81.2306 16V4.752H83.4066V16H81.2306ZM88.2866 16V4.752H90.4626V16H88.2866ZM82.6066 11.152V9.232H88.8946V11.152H82.6066Z" fill="#00FFF8"/>
<path fill-rule="evenodd" clip-rule="evenodd" d="M5.5 1L10.9961 10.1687L5.5 13.4312L0 10.1687L5.5 1ZM11 11.2165L5.5 19L0 11.2165L5.5 14.479L11 11.2165Z" fill="#00FFF8"/>
</svg>
